# xmcd
#
# Track frame offsets:
#	150
#	28265
#	51437
#	86290
#	109552
#	137060
#	162985
#	193400
#
# Disc length: 2965 seconds
#
# Revision: 1
# Processed by: cddbd v1.4PL0 Copyright (c) Steve Scherf et al.
# Submitted via: audiograbber 1.82.01
#
DISCID=6c0b9308
DTITLE=Assi El Hillani - Ahibbak Jidan
DYEAR=1900
DGENRE=
TTITLE0=Ahibak Jidan
TTITLE1=Wayli Minhom
TTITLE2=Amshi El Hali
TTITLE3=Yalli Nawayt Tbi3
TTITLE4=Gharibeh
TTITLE5=Ana Eh
TTITLE6=Habayton
TTITLE7=Ya Lebnan T2akharna
EXTD=
EXTT0=
EXTT1=
EXTT2=
EXTT3=
EXTT4=
EXTT5=
EXTT6=
EXTT7=
PLAYORDER=
